<mxfile host="Electron" modified="2024-07-08T11:28:00.021Z" agent="Mozilla/5.0 (Macintosh; Intel Mac OS X 10_15_7) AppleWebKit/537.36 (KHTML, like Gecko) draw.io/24.6.4 Chrome/124.0.6367.207 Electron/30.0.6 Safari/537.36" etag="GOTopZKIrvBFbR3xM7V1" version="24.6.4" type="device">
  <diagram name="Page-1" id="8p2Oh7DDOQpRFmzlb6lt">
    <mxGraphModel dx="2329" dy="1040" grid="1" gridSize="10" guides="1" tooltips="1" connect="1" arrows="1" fold="1" page="1" pageScale="1" pageWidth="827" pageHeight="1169" math="0" shadow="0">
      <root>
        <mxCell id="0" />
        <mxCell id="1" parent="0" />
        <mxCell id="K-e23Y9VoZLiWb12NRF2-63" value="" style="rounded=0;whiteSpace=wrap;html=1;fillColor=none;dashed=1;strokeColor=#666666;fontStyle=1;strokeWidth=2;" parent="1" vertex="1">
          <mxGeometry x="-50" y="10" width="710" height="650" as="geometry" />
        </mxCell>
        <mxCell id="K-e23Y9VoZLiWb12NRF2-47" value="" style="rounded=0;whiteSpace=wrap;html=1;fillColor=none;dashed=1;strokeColor=#007FFF;fontStyle=1;strokeWidth=2;" parent="1" vertex="1">
          <mxGeometry x="110" y="120" width="470" height="520" as="geometry" />
        </mxCell>
        <mxCell id="K-e23Y9VoZLiWb12NRF2-2" value="" style="whiteSpace=wrap;html=1;aspect=fixed;strokeWidth=2;" parent="1" vertex="1">
          <mxGeometry x="140" y="160" width="420" height="420" as="geometry" />
        </mxCell>
        <mxCell id="K-e23Y9VoZLiWb12NRF2-44" value="" style="rounded=0;whiteSpace=wrap;html=1;fillColor=none;dashed=1;strokeColor=#007FFF;strokeWidth=2;" parent="1" vertex="1">
          <mxGeometry x="160" y="379" width="370" height="181" as="geometry" />
        </mxCell>
        <mxCell id="K-e23Y9VoZLiWb12NRF2-45" value="" style="rounded=0;whiteSpace=wrap;html=1;fillColor=none;dashed=1;strokeColor=#007FFF;strokeWidth=2;" parent="1" vertex="1">
          <mxGeometry x="159" y="189.5" width="370" height="181" as="geometry" />
        </mxCell>
        <mxCell id="K-e23Y9VoZLiWb12NRF2-3" value="&lt;b&gt;VPC&lt;br&gt;&lt;/b&gt;" style="rounded=0;whiteSpace=wrap;html=1;" parent="1" vertex="1">
          <mxGeometry x="140" y="160" width="60" height="20" as="geometry" />
        </mxCell>
        <mxCell id="K-e23Y9VoZLiWb12NRF2-5" value="" style="outlineConnect=0;dashed=0;verticalLabelPosition=bottom;verticalAlign=top;align=center;html=1;shape=mxgraph.aws3.internet_gateway;fillColor=#F58534;gradientColor=none;" parent="1" vertex="1">
          <mxGeometry x="319" y="30" width="50" height="52" as="geometry" />
        </mxCell>
        <mxCell id="K-e23Y9VoZLiWb12NRF2-6" value="&lt;b&gt;Internet Gateway&lt;/b&gt;" style="rounded=0;whiteSpace=wrap;html=1;" parent="1" vertex="1">
          <mxGeometry x="274" y="80" width="140" height="22" as="geometry" />
        </mxCell>
        <mxCell id="K-e23Y9VoZLiWb12NRF2-13" value="" style="rounded=1;whiteSpace=wrap;html=1;fillColor=#dae8fc;strokeColor=#6c8ebf;" parent="1" vertex="1">
          <mxGeometry x="194" y="400" width="300" height="140" as="geometry" />
        </mxCell>
        <mxCell id="K-e23Y9VoZLiWb12NRF2-14" value="" style="rounded=1;whiteSpace=wrap;html=1;fillColor=#d5e8d4;strokeColor=#82b366;" parent="1" vertex="1">
          <mxGeometry x="194" y="210" width="300" height="140" as="geometry" />
        </mxCell>
        <mxCell id="K-e23Y9VoZLiWb12NRF2-15" value="" style="outlineConnect=0;dashed=0;verticalLabelPosition=bottom;verticalAlign=top;align=center;html=1;shape=mxgraph.aws3.vpc_nat_gateway;fillColor=#F58534;gradientColor=none;" parent="1" vertex="1">
          <mxGeometry x="241.5" y="243" width="55" height="52" as="geometry" />
        </mxCell>
        <mxCell id="K-e23Y9VoZLiWb12NRF2-16" value="&lt;b&gt;NAT Gateway&lt;/b&gt;" style="rounded=0;whiteSpace=wrap;html=1;" parent="1" vertex="1">
          <mxGeometry x="219" y="295" width="100" height="22" as="geometry" />
        </mxCell>
        <mxCell id="K-e23Y9VoZLiWb12NRF2-17" value="" style="sketch=0;points=[[0,0,0],[0.25,0,0],[0.5,0,0],[0.75,0,0],[1,0,0],[0,1,0],[0.25,1,0],[0.5,1,0],[0.75,1,0],[1,1,0],[0,0.25,0],[0,0.5,0],[0,0.75,0],[1,0.25,0],[1,0.5,0],[1,0.75,0]];outlineConnect=0;fontColor=#232F3E;fillColor=#ED7100;strokeColor=#ffffff;dashed=0;verticalLabelPosition=bottom;verticalAlign=top;align=center;html=1;fontSize=12;fontStyle=0;aspect=fixed;shape=mxgraph.aws4.resourceIcon;resIcon=mxgraph.aws4.ec2;" parent="1" vertex="1">
          <mxGeometry x="405.37" y="230" width="39.75" height="39.75" as="geometry" />
        </mxCell>
        <mxCell id="K-e23Y9VoZLiWb12NRF2-19" value="&lt;b&gt;EC2 Instances&lt;/b&gt;" style="rounded=0;whiteSpace=wrap;html=1;" parent="1" vertex="1">
          <mxGeometry x="378.5" y="309.5" width="101" height="22" as="geometry" />
        </mxCell>
        <mxCell id="K-e23Y9VoZLiWb12NRF2-20" value="&lt;b style=&quot;font-size: 12px;&quot;&gt;Public Subnet&lt;/b&gt;" style="rounded=0;whiteSpace=wrap;html=1;fontSize=12;align=center;" parent="1" vertex="1">
          <mxGeometry x="194" y="210" width="96" height="20" as="geometry" />
        </mxCell>
        <mxCell id="K-e23Y9VoZLiWb12NRF2-21" value="&lt;b&gt;Private Subnet&lt;/b&gt;" style="rounded=0;whiteSpace=wrap;html=1;" parent="1" vertex="1">
          <mxGeometry x="194" y="400" width="96" height="20" as="geometry" />
        </mxCell>
        <mxCell id="K-e23Y9VoZLiWb12NRF2-26" style="edgeStyle=orthogonalEdgeStyle;rounded=0;orthogonalLoop=1;jettySize=auto;html=1;exitX=1;exitY=0;exitDx=0;exitDy=0;exitPerimeter=0;startArrow=classic;startFill=1;" parent="1" source="K-e23Y9VoZLiWb12NRF2-24" target="K-e23Y9VoZLiWb12NRF2-16" edge="1">
          <mxGeometry relative="1" as="geometry" />
        </mxCell>
        <mxCell id="K-e23Y9VoZLiWb12NRF2-24" value="" style="sketch=0;points=[[0,0,0],[0.25,0,0],[0.5,0,0],[0.75,0,0],[1,0,0],[0,1,0],[0.25,1,0],[0.5,1,0],[0.75,1,0],[1,1,0],[0,0.25,0],[0,0.5,0],[0,0.75,0],[1,0.25,0],[1,0.5,0],[1,0.75,0]];outlineConnect=0;fontColor=#232F3E;fillColor=#ED7100;strokeColor=#ffffff;dashed=0;verticalLabelPosition=bottom;verticalAlign=top;align=center;html=1;fontSize=12;fontStyle=0;aspect=fixed;shape=mxgraph.aws4.resourceIcon;resIcon=mxgraph.aws4.ec2;" parent="1" vertex="1">
          <mxGeometry x="321.5" y="440" width="46.5" height="46.5" as="geometry" />
        </mxCell>
        <mxCell id="K-e23Y9VoZLiWb12NRF2-25" value="&lt;b&gt;EC2 Instances&lt;/b&gt;" style="rounded=0;whiteSpace=wrap;html=1;" parent="1" vertex="1">
          <mxGeometry x="319" y="486.5" width="101" height="22" as="geometry" />
        </mxCell>
        <mxCell id="K-e23Y9VoZLiWb12NRF2-27" style="edgeStyle=orthogonalEdgeStyle;rounded=0;orthogonalLoop=1;jettySize=auto;html=1;exitX=1;exitY=0.5;exitDx=0;exitDy=0;exitPerimeter=0;entryX=0.323;entryY=0.909;entryDx=0;entryDy=0;entryPerimeter=0;startArrow=classic;startFill=1;" parent="1" source="K-e23Y9VoZLiWb12NRF2-15" target="K-e23Y9VoZLiWb12NRF2-6" edge="1">
          <mxGeometry relative="1" as="geometry" />
        </mxCell>
        <mxCell id="K-e23Y9VoZLiWb12NRF2-32" style="edgeStyle=orthogonalEdgeStyle;rounded=0;orthogonalLoop=1;jettySize=auto;html=1;exitX=1;exitY=0.5;exitDx=0;exitDy=0;exitPerimeter=0;entryX=0;entryY=0.5;entryDx=0;entryDy=0;" parent="1" source="K-e23Y9VoZLiWb12NRF2-29" target="K-e23Y9VoZLiWb12NRF2-14" edge="1">
          <mxGeometry relative="1" as="geometry" />
        </mxCell>
        <mxCell id="K-e23Y9VoZLiWb12NRF2-33" style="edgeStyle=orthogonalEdgeStyle;rounded=0;orthogonalLoop=1;jettySize=auto;html=1;exitX=1;exitY=0.5;exitDx=0;exitDy=0;exitPerimeter=0;entryX=0;entryY=0.5;entryDx=0;entryDy=0;" parent="1" source="K-e23Y9VoZLiWb12NRF2-29" target="K-e23Y9VoZLiWb12NRF2-13" edge="1">
          <mxGeometry relative="1" as="geometry" />
        </mxCell>
        <mxCell id="K-e23Y9VoZLiWb12NRF2-29" value="" style="sketch=0;points=[[0,0,0],[0.25,0,0],[0.5,0,0],[0.75,0,0],[1,0,0],[0,1,0],[0.25,1,0],[0.5,1,0],[0.75,1,0],[1,1,0],[0,0.25,0],[0,0.5,0],[0,0.75,0],[1,0.25,0],[1,0.5,0],[1,0.75,0]];outlineConnect=0;fontColor=#232F3E;fillColor=#8C4FFF;strokeColor=#ffffff;dashed=0;verticalLabelPosition=bottom;verticalAlign=top;align=center;html=1;fontSize=12;fontStyle=0;aspect=fixed;shape=mxgraph.aws4.resourceIcon;resIcon=mxgraph.aws4.client_vpn;" parent="1" vertex="1">
          <mxGeometry x="10" y="340" width="58" height="58" as="geometry" />
        </mxCell>
        <mxCell id="K-e23Y9VoZLiWb12NRF2-30" value="&lt;b&gt;Client VPN Endpoint&lt;/b&gt;" style="rounded=0;whiteSpace=wrap;html=1;" parent="1" vertex="1">
          <mxGeometry x="-26" y="398" width="130" height="22" as="geometry" />
        </mxCell>
        <mxCell id="K-e23Y9VoZLiWb12NRF2-35" value="" style="sketch=0;outlineConnect=0;fontColor=#232F3E;gradientColor=none;strokeColor=#232F3E;fillColor=#ffffff;dashed=0;verticalLabelPosition=bottom;verticalAlign=top;align=center;html=1;fontSize=12;fontStyle=0;aspect=fixed;shape=mxgraph.aws4.resourceIcon;resIcon=mxgraph.aws4.client;" parent="1" vertex="1">
          <mxGeometry x="-197.5" y="269.75" width="70" height="70" as="geometry" />
        </mxCell>
        <mxCell id="K-e23Y9VoZLiWb12NRF2-36" value="" style="sketch=0;outlineConnect=0;fontColor=#232F3E;gradientColor=none;strokeColor=#232F3E;fillColor=#ffffff;dashed=0;verticalLabelPosition=bottom;verticalAlign=top;align=center;html=1;fontSize=12;fontStyle=0;aspect=fixed;shape=mxgraph.aws4.resourceIcon;resIcon=mxgraph.aws4.client;" parent="1" vertex="1">
          <mxGeometry x="-197.5" y="379" width="70" height="70" as="geometry" />
        </mxCell>
        <mxCell id="K-e23Y9VoZLiWb12NRF2-38" value="&lt;b&gt;Client A&lt;/b&gt;" style="rounded=0;whiteSpace=wrap;html=1;" parent="1" vertex="1">
          <mxGeometry x="-200" y="332.75" width="75" height="22" as="geometry" />
        </mxCell>
        <mxCell id="K-e23Y9VoZLiWb12NRF2-40" style="edgeStyle=orthogonalEdgeStyle;rounded=0;orthogonalLoop=1;jettySize=auto;html=1;entryX=0;entryY=0.5;entryDx=0;entryDy=0;entryPerimeter=0;" parent="1" source="K-e23Y9VoZLiWb12NRF2-35" target="K-e23Y9VoZLiWb12NRF2-29" edge="1">
          <mxGeometry relative="1" as="geometry" />
        </mxCell>
        <mxCell id="K-e23Y9VoZLiWb12NRF2-42" style="edgeStyle=orthogonalEdgeStyle;rounded=0;orthogonalLoop=1;jettySize=auto;html=1;entryX=0;entryY=0.5;entryDx=0;entryDy=0;entryPerimeter=0;" parent="1" source="K-e23Y9VoZLiWb12NRF2-36" target="K-e23Y9VoZLiWb12NRF2-29" edge="1">
          <mxGeometry relative="1" as="geometry">
            <Array as="points">
              <mxPoint x="-60" y="435" />
              <mxPoint x="-60" y="369" />
            </Array>
          </mxGeometry>
        </mxCell>
        <mxCell id="K-e23Y9VoZLiWb12NRF2-43" value="&lt;b&gt;Client B&lt;/b&gt;" style="rounded=0;whiteSpace=wrap;html=1;" parent="1" vertex="1">
          <mxGeometry x="-202.5" y="443.5" width="75" height="22" as="geometry" />
        </mxCell>
        <mxCell id="K-e23Y9VoZLiWb12NRF2-48" value="&lt;b&gt;east-us-1&lt;/b&gt;" style="rounded=0;whiteSpace=wrap;html=1;" parent="1" vertex="1">
          <mxGeometry x="90" y="120" width="80" height="20" as="geometry" />
        </mxCell>
        <mxCell id="K-e23Y9VoZLiWb12NRF2-50" value="&lt;b&gt;us-east-1a&lt;/b&gt;" style="rounded=0;whiteSpace=wrap;html=1;" parent="1" vertex="1">
          <mxGeometry x="479.5" y="379" width="70" height="20" as="geometry" />
        </mxCell>
        <mxCell id="K-e23Y9VoZLiWb12NRF2-51" value="&lt;b&gt;us-east-1b&lt;/b&gt;" style="rounded=0;whiteSpace=wrap;html=1;" parent="1" vertex="1">
          <mxGeometry x="479.5" y="180" width="70" height="20" as="geometry" />
        </mxCell>
        <mxCell id="K-e23Y9VoZLiWb12NRF2-56" value="" style="sketch=0;points=[[0,0,0],[0.25,0,0],[0.5,0,0],[0.75,0,0],[1,0,0],[0,1,0],[0.25,1,0],[0.5,1,0],[0.75,1,0],[1,1,0],[0,0.25,0],[0,0.5,0],[0,0.75,0],[1,0.25,0],[1,0.5,0],[1,0.75,0]];outlineConnect=0;fontColor=#232F3E;fillColor=#ED7100;strokeColor=#ffffff;dashed=0;verticalLabelPosition=bottom;verticalAlign=top;align=center;html=1;fontSize=12;fontStyle=0;aspect=fixed;shape=mxgraph.aws4.resourceIcon;resIcon=mxgraph.aws4.ec2;" parent="1" vertex="1">
          <mxGeometry x="405.37" y="269.75" width="39.75" height="39.75" as="geometry" />
        </mxCell>
        <mxCell id="K-e23Y9VoZLiWb12NRF2-61" style="edgeStyle=orthogonalEdgeStyle;rounded=0;orthogonalLoop=1;jettySize=auto;html=1;exitX=0;exitY=0;exitDx=0;exitDy=0;exitPerimeter=0;entryX=0.686;entryY=0.909;entryDx=0;entryDy=0;entryPerimeter=0;startArrow=classic;startFill=1;" parent="1" source="K-e23Y9VoZLiWb12NRF2-56" target="K-e23Y9VoZLiWb12NRF2-6" edge="1">
          <mxGeometry relative="1" as="geometry">
            <Array as="points">
              <mxPoint x="370" y="270" />
            </Array>
          </mxGeometry>
        </mxCell>
        <mxCell id="K-e23Y9VoZLiWb12NRF2-62" value="" style="sketch=0;points=[[0,0,0],[0.25,0,0],[0.5,0,0],[0.75,0,0],[1,0,0],[0,1,0],[0.25,1,0],[0.5,1,0],[0.75,1,0],[1,1,0],[0,0.25,0],[0,0.5,0],[0,0.75,0],[1,0.25,0],[1,0.5,0],[1,0.75,0]];outlineConnect=0;fontColor=#232F3E;fillColor=#ED7100;strokeColor=#ffffff;dashed=0;verticalLabelPosition=bottom;verticalAlign=top;align=center;html=1;fontSize=12;fontStyle=0;aspect=fixed;shape=mxgraph.aws4.resourceIcon;resIcon=mxgraph.aws4.ec2;" parent="1" vertex="1">
          <mxGeometry x="369" y="440" width="46.5" height="46.5" as="geometry" />
        </mxCell>
        <mxCell id="K-e23Y9VoZLiWb12NRF2-64" value="&lt;span&gt;AWS Cloud&lt;/span&gt;" style="rounded=0;whiteSpace=wrap;html=1;fontStyle=1" parent="1" vertex="1">
          <mxGeometry x="-50" y="10" width="80" height="20" as="geometry" />
        </mxCell>
      </root>
    </mxGraphModel>
  </diagram>
</mxfile>
